<?xml version="1.0" encoding="UTF-8"?>
<svg id="_레이어_2" data-name="레이어 2" xmlns="http://www.w3.org/2000/svg" viewBox="0 0 129.6 28.1">
  <defs>
    <style>
      .cls-1 {
        fill: #231815;
        stroke-width: 0px;
      }
    </style>
  </defs>
  <g id="_레이어_1-2" data-name="레이어 1">
    <g>
      <path class="cls-1" d="M22.59,28.1h-9.83C5.72,28.1,0,22.38,0,15.34v-2.59C0,5.72,5.72,0,12.76,0h9.83c7.04,0,12.76,5.72,12.76,12.76v2.59c0,7.04-5.72,12.76-12.76,12.76ZM12.76,4.25c-4.69,0-8.51,3.82-8.51,8.51v2.59c0,4.69,3.82,8.51,8.51,8.51h9.83c4.69,0,8.51-3.82,8.51-8.51v-2.59c0-4.69-3.82-8.51-8.51-8.51h-9.83Z"/>
      <path class="cls-1" d="M129.6,27.87h-4.25V11.18c0-3.82-3.11-6.93-6.93-6.93h-12.99c-3.82,0-6.93,3.11-6.93,6.93v16.69h-4.25V11.18c0-6.16,5.01-11.18,11.18-11.18h12.99c6.16,0,11.18,5.01,11.18,11.18v16.69Z"/>
      <path class="cls-1" d="M71.44,28.1h-24.17V9.37h4.25v14.48h19.91c3.82,0,6.93-3.11,6.93-6.93v-5.75c0-3.82-3.11-6.93-6.93-6.93h-24.23V0h24.23c6.16,0,11.18,5.01,11.18,11.18v5.75c0,6.16-5.01,11.18-11.18,11.18Z"/>
    </g>
  </g>
</svg>