<?xml version="1.0" encoding="UTF-8"?>
<svg id="_레이어_2" data-name="레이어 2" xmlns="http://www.w3.org/2000/svg" viewBox="0 0 57.84 76.39">
  <defs>
    <style>
      .cls-1 {
        fill: #567c03;
      }

      .cls-1, .cls-2, .cls-3, .cls-4, .cls-5, .cls-6, .cls-7, .cls-8 {
        stroke-width: 0px;
      }

      .cls-2 {
        fill: #36318f;
      }

      .cls-3 {
        fill: #1d2088;
      }

      .cls-4 {
        fill: #8fc31f;
      }

      .cls-5 {
        fill: #00a0e9;
      }

      .cls-6 {
        fill: #e60012;
      }

      .cls-7 {
        fill: #ed6c00;
      }

      .cls-8 {
        fill: #fdd000;
      }
    </style>
  </defs>
  <g id="_레이어_1-2" data-name="레이어 1">
    <g>
      <path class="cls-6" d="M38.85,21.67l3.75-3.65-2.73-13.7c-.7-3.35-4.43-5.36-6.96-3.76l-12.58,6.03c-1.75,1.11-2.2,3.57-1.04,5.72l11.79,21.78c1.39-.41,3.06.08,3.95,1.29l3.87,5.22c.34-.12.67-.29.97-.53l3.05-2.38-4.49-11.46c-.7-1.79-.53-3.64.44-4.57Z"/>
      <path class="cls-4" d="M21.25,40.75l6.6-4.6-10.83-12.97c-1.39-1.65-3.6-2.07-5.04-.97L1.2,29.97c-1.93,1.48-1.47,4.8.88,6.36l20.96,14.04c1.39.92,3.04.93,4.14.02l1.28-1.06-6.75-3.9c-1.93-1.12-2.17-3.5-.47-4.69Z"/>
      <path class="cls-8" d="M33.16,37.97l-2.08-3.87c-.33.1-.64.24-.92.44l-2.3,1.61,4.13,4.89c1.47,1.74,1.46,4.19-.02,5.41l-3.48,2.88,4.83,2.79c1.21.7,2.73.67,3.8-.06l4.57-3.12c1.28-.88,1.54-2.51.6-3.78l-3.38-4.56c-1.98.71-4.51-.36-5.74-2.64Z"/>
      <path class="cls-6" d="M31.08,34.1l2.08,3.87c1.23,2.28,3.76,3.35,5.74,2.64l-3.87-5.22c-.89-1.21-2.56-1.7-3.95-1.29Z"/>
      <path class="cls-7" d="M31.08,34.1l2.08,3.87c1.23,2.28,3.76,3.35,5.74,2.64l-3.87-5.22c-.89-1.21-2.56-1.7-3.95-1.29Z"/>
      <path class="cls-4" d="M31.98,41.04l-4.13-4.89-6.6,4.6c-1.7,1.19-1.46,3.57.47,4.69l6.75,3.9,3.48-2.88c1.48-1.23,1.49-3.67.02-5.41Z"/>
      <path class="cls-1" d="M31.98,41.04l-4.13-4.89-6.6,4.6c-1.7,1.19-1.46,3.57.47,4.69l6.75,3.9,3.48-2.88c1.48-1.23,1.49-3.67.02-5.41Z"/>
      <path class="cls-5" d="M53.45,35.82l-3-16.14c-.62-3.36-3.82-5.57-5.58-3.85l-2.27,2.2,3.04,14.49c.34,1.63-.15,3.18-1.3,4.08l-1.43,1.12.85,2.16c1.08,2.75,3.68,4.13,5.2,2.75l3.67-3.33c.78-.71,1.09-2.02.82-3.47Z"/>
      <path class="cls-3" d="M45.64,32.51l-3.04-14.49-3.75,3.65c-.96.93-1.14,2.78-.44,4.57l4.49,11.46,1.43-1.12c1.15-.89,1.64-2.45,1.3-4.08Z"/>
      <path class="cls-2" d="M28.01,51.74l4.69,2.28s-15.5,10.43-20.05,22.37h-1.91s.57-12.37,17.27-24.65Z"/>
      <path class="cls-2" d="M54.23,29.26c-.11,0-.22.02-.32.03l1.19,6.82c1.62-.34,2.81-1.82,2.74-3.53-.08-1.91-1.7-3.4-3.61-3.32Z"/>
    </g>
  </g>
</svg>